<?xml version="1.0" encoding="UTF-8"?> <svg xmlns="http://www.w3.org/2000/svg" width="1278" height="813" viewBox="0 0 1278 813" fill="none"><rect width="1276.29" height="812" transform="translate(0.853516 0.5)" fill="#F7F7F7"></rect><path d="M667.487 365.594H610.217C603.448 365.614 597.965 371.096 597.945 377.866V414.109L613.817 398.237C618.675 393.615 626.304 393.615 631.162 398.237L642.908 410.047L646.538 406.417C651.338 401.644 659.091 401.644 663.892 406.417L679.759 422.284V377.866C679.739 371.096 674.256 365.614 667.487 365.594Z" fill="#EBEBEB"></path><path d="M631.162 398.236C626.304 393.614 618.675 393.614 613.817 398.236L597.945 414.108V435.134C597.965 441.904 603.448 447.387 610.217 447.406H667.487C670.821 447.405 674.011 446.046 676.323 443.643L631.162 398.236Z" fill="#4D4D4D"></path><path d="M679.758 422.283L663.89 406.416C659.09 401.644 651.337 401.644 646.537 406.416L642.906 410.047L676.304 443.625C678.521 441.356 679.761 438.308 679.758 435.135V422.283Z" fill="#6D6D6D"></path><circle cx="647.033" cy="381.957" r="8.18136" fill="#626262"></circle></svg> 